<?xml version="1.0" encoding="utf-8"?>
<!-- Generator: Adobe Illustrator 19.0.0, SVG Export Plug-In . SVG Version: 6.00 Build 0)  -->
<svg version="1.1" id="Layer_1" xmlns="http://www.w3.org/2000/svg" xmlns:xlink="http://www.w3.org/1999/xlink" x="0px" y="0px"
	 viewBox="0 0 250 400" style="enable-background:new 0 0 250 400;" xml:space="preserve">
<style type="text/css">
	.st0{fill:#9DE230;}
</style>
<g id="XMLID_5_">
	<g id="XMLID_130_">
		<path id="XMLID_177_" class="st0" d="M78.8,147.5c-0.1,0-0.2-0.1-0.3-0.2l0.1,0l0.4-0.2v0l87.8-77c0.9,2.8,2.8,5.2,5.5,6.5
			c0,0,0,0,0,0l0,0L84,153.8l0,0C83.2,151.1,81.2,148.9,78.8,147.5z"/>
		<path id="XMLID_96_" class="st0" d="M84.4,158.7c-0.6,3.1-2.4,6-5,7.5l148.5,104.2L20.5,303.6c1.1,1.7,1.8,3.7,1.8,5.8
			c0,1.6-0.4,3.2-1,4.5c-0.4,0.9-1,1.7-1.6,2.5l0.3,0.1l5.1,1.6v0l151.5,49.4l0.2,0.1l2.3,0.9c0-0.3-0.1-0.7-0.1-1
			c0-0.3,0-0.5,0-0.8c0.2-2.7,1.4-5.4,3.2-7.2l-0.5-0.5h0l-152-49.1l199.9-32c-0.8-1.5-1.3-3.2-1.3-5c0-3.2,1.4-6.1,3.7-8.1
			c0.4-0.4,0.9-0.7,1.4-1l-0.1,0l-2.3-1.5v0L85.1,159.2L84.4,158.7z"/>
	</g>
	<g id="XMLID_129_">
		<path id="XMLID_119_" class="st0" d="M148.8,47.7c-0.7-0.1-1.3-0.2-2-0.2c-2.9,0-5.5,1.1-7.4,3c-0.3,0.2-0.5,0.5-0.7,0.8l-0.2-0.5
			l-0.1-0.3l-10.8-31c0.7,0.1,1.3,0.2,2,0.2c3.2,0,6.2-1.4,8.1-3.7L148.8,47.7z"/>
	</g>
	<path id="XMLID_131_" class="st0" d="M139.4,50.3L139,50h0l-0.5,0.3l-0.1,0.1l-21.7-6.4c0.1,0.4,0.1,0.9,0.1,1.4c0,2.7-1,5.1-2.6,7
		l21.9,6.7c0-0.2,0-0.4,0-0.7c0-2.7,1-5.2,2.6-7.1C138.9,50.9,139.1,50.5,139.4,50.3z M168.7,60.1l-11.3-3.3
		c0.1,0.5,0.1,0.9,0.1,1.4c0,2.7-1,4.9-2.6,6.8l0.3-0.1h0l10.9,3.2c-0.1-0.4-0.1-0.8-0.1-1.2C166.1,64.3,167.1,62,168.7,60.1z
		 M78.1,81.9c-1.7,0-3.3-0.4-4.7-1.1l-3.2,66.2c1.1-0.4,2.3-0.6,3.6-0.6c1.7,0,3.4,0.4,4.8,1.1c0.1,0,0.5,0.1,0.5,0.2v-0.4l3.1-65.9
		C80.9,81.7,79.4,81.9,78.1,81.9z M225.2,312.2l-0.3,0.4l0.2,0L192.1,357c2.8,0.6,5.1,2.3,6.6,4.7l32.4-43.9v0l0.3-0.2
		C228.6,316.6,226.5,314.7,225.2,312.2z M181.8,365.3v0.7h0C181.9,365.8,181.8,365.5,181.8,365.3z M115,384.2l-39.2-11.6
		c0.1,0.4,0.1,0.9,0.1,1.3c0,2.6-0.9,5-2.5,6.9l39.1,11.6c-0.1-0.4-0.1-0.9-0.1-1.3C112.4,388.4,113.4,386,115,384.2z M65.6,163.9
		l-42.8,85.5c3.2,0.2,6.1,1.7,7.9,4.2l0.1-0.3l42.6-85.5C70.3,167.7,67.4,166.2,65.6,163.9z M16.2,268.9l-6.1,29.9
		c0.5-0.1,0.9-0.1,1.4-0.1c2.3,0,4.4,0.7,6.2,2l0.3-0.1l7.1-30v-0.2c-1,0.3-1.8,0.4-2.8,0.4C19.9,270.8,17.9,270.1,16.2,268.9z
		 M25,318.2L25,318.2l-3.6-3.9l-0.2-0.3c-0.4,0.9-1,1.7-1.6,2.5c-1.3,1.6-3.1,2.7-5.1,3.3l41.1,49.3l0,0c1.4-2.7,3.8-4.8,6.9-5.6
		L25,318.2z M181.9,374.8c-1.6-1.7-2.6-3.9-2.9-6.3c0-0.3-0.1-0.7-0.1-1c0-0.3,0-0.5,0-0.8l-2.5,0.9l-0.2,0.1L131,383.7
		c1.8,1.9,2.9,4.5,2.9,7.3c0,0.3,0,0.5,0,0.8L181.9,374.8z M238.9,283.7c-2.1,0-3.9-0.6-5.9-1.7v0.2l-2,14.9v0.2
		c1-0.4,2.4-0.6,3.7-0.6c1.8,0,3.6,0.5,5.1,1.2l2.2-14.5v0C241,283.6,239.9,283.7,238.9,283.7z M240.6,262.3L183.9,75l-0.1,0
		c-1.9,1.6-4.3,2.6-6.9,2.6c-0.4,0-1.1,0-1.5-0.1c0,0-0.3,0-0.3,0v0l56,184.8v0l0.9,2.5l0.1,0.1c0.4-0.4,0.9-0.7,1.4-1
		c1.6-1,3.6-1.6,5.6-1.6C239.6,262.2,240.1,262.3,240.6,262.3L240.6,262.3z M95.8,48.9L82.4,61.3c2.7,1.2,4.9,3.5,5.8,6.3l13.4-12.4
		C98.9,54,96.8,51.7,95.8,48.9z"/>
	<path id="XMLID_110_" class="st0" d="M153.9,58.3c0,3.9-3.3,7.2-7.2,7.2c-3.9,0-7.2-3.3-7.2-7.2c0-3.8,3.1-7,6.9-7.1
		C150.5,51,153.9,54.2,153.9,58.3z"/>
	<path id="XMLID_31_" class="st0" d="M113.1,45.4c0,3.9-3.3,7.2-7.2,7.2c-3.9,0-7.2-3.3-7.2-7.2c0-3.8,3.1-7,6.9-7.1
		C109.7,38.1,113.1,41.4,113.1,45.4z"/>
	<path id="XMLID_38_" class="st0" d="M85.2,71.2c0,3.9-3.3,7.2-7.2,7.2c-3.9,0-7.2-3.3-7.2-7.2c0-3.8,3.1-7,6.9-7.1
		C81.8,63.9,85.2,67.1,85.2,71.2z"/>
	<path id="XMLID_95_" class="st0" d="M80.9,157c0,3.9-3.3,7.2-7.2,7.2c-3.9,0-7.2-3.3-7.2-7.2c0-3.8,3.1-7,6.9-7.1
		C77.5,149.7,80.9,153,80.9,157z"/>
	<path id="XMLID_37_" class="st0" d="M136.7,8.9c0,3.9-3.3,7.2-7.2,7.2c-3.9,0-7.2-3.3-7.2-7.2c0-3.8,3.1-7,6.9-7.1
		C133.3,1.6,136.7,4.9,136.7,8.9z"/>
	<path id="XMLID_35_" class="st0" d="M184,66.9c0,3.9-3.3,7.2-7.2,7.2c-3.9,0-7.2-3.3-7.2-7.2c0-3.8,3.1-7,6.9-7.1
		C180.5,59.6,184,62.8,184,66.9z"/>
	<g id="XMLID_106_">
		<path id="XMLID_107_" class="st0" d="M29.4,260.1c0,3.9-3.3,7.2-7.2,7.2c-3.9,0-7.2-3.3-7.2-7.2c0-3.8,3.1-7,6.9-7.1
			C26,252.8,29.4,256.1,29.4,260.1z"/>
	</g>
	<g id="XMLID_98_">
		<path id="XMLID_99_" class="st0" d="M18.7,309.5c0,3.9-3.3,7.2-7.2,7.2c-3.9,0-7.2-3.3-7.2-7.2c0-3.8,3.1-7,6.9-7.1
			C15.2,302.2,18.7,305.4,18.7,309.5z"/>
	</g>
	<g id="XMLID_101_">
		<path id="XMLID_102_" class="st0" d="M72.3,373.9c0,3.9-3.3,7.2-7.2,7.2c-3.9,0-7.2-3.3-7.2-7.2c0-3.8,3.1-7,6.9-7.1
			C68.9,366.6,72.3,369.9,72.3,373.9z"/>
	</g>
	<g id="XMLID_100_">
		<path id="XMLID_103_" class="st0" d="M130.3,391.1c0,3.9-3.3,7.2-7.2,7.2c-3.9,0-7.2-3.3-7.2-7.2c0-3.8,3.1-7,6.9-7.1
			C126.9,383.8,130.3,387,130.3,391.1z"/>
	</g>
	<g id="XMLID_97_">
		<path id="XMLID_104_" class="st0" d="M196.9,367.4c0,3.9-3.3,7.2-7.2,7.2c-3.9,0-7.2-3.3-7.2-7.2c0-3.8,3.1-7,6.9-7.1
			C193.4,360.1,196.9,363.4,196.9,367.4z"/>
	</g>
	<g id="XMLID_87_">
		<path id="XMLID_105_" class="st0" d="M242,307.3c0,3.9-3.3,7.2-7.2,7.2c-3.9,0-7.2-3.3-7.2-7.2c0-3.8,3.1-7,6.9-7.1
			C238.5,300,242,303.3,242,307.3z"/>
	</g>
	<g id="XMLID_36_">
		<path id="XMLID_108_" class="st0" d="M246.2,273c0,3.9-3.3,7.2-7.2,7.2c-3.9,0-7.2-3.3-7.2-7.2c0-3.8,3.1-7,6.9-7.1
			C242.8,265.7,246.2,269,246.2,273z"/>
	</g>
</g>
</svg>
